<mxfile host="app.diagrams.net" agent="Mozilla/5.0 (Macintosh; Intel Mac OS X 10_15_7) AppleWebKit/537.36 (KHTML, like Gecko) Chrome/130.0.0.0 Safari/537.36" version="24.8.6">
  <diagram name="Page-1" id="0Awox8vpgQFOPTNNr-SR">
    <mxGraphModel dx="481" dy="521" grid="1" gridSize="10" guides="1" tooltips="1" connect="1" arrows="1" fold="1" page="1" pageScale="1" pageWidth="850" pageHeight="1100" math="0" shadow="0">
      <root>
        <mxCell id="0" />
        <mxCell id="1" parent="0" />
        <mxCell id="Erd0pCjpf10aL4VD4ASl-1" value="Player&lt;div&gt;&lt;br&gt;&lt;/div&gt;&lt;div&gt;&lt;br&gt;&lt;/div&gt;&lt;div&gt;&lt;br&gt;&lt;/div&gt;&lt;div&gt;&lt;br&gt;&lt;/div&gt;" style="shape=umlLifeline;perimeter=lifelinePerimeter;whiteSpace=wrap;html=1;container=1;dropTarget=0;collapsible=0;recursiveResize=0;outlineConnect=0;portConstraint=eastwest;newEdgeStyle={&quot;curved&quot;:0,&quot;rounded&quot;:0};participant=umlActor;" parent="1" vertex="1">
          <mxGeometry x="170" y="120" width="20" height="680" as="geometry" />
        </mxCell>
        <mxCell id="Erd0pCjpf10aL4VD4ASl-2" value=":Game" style="shape=umlLifeline;perimeter=lifelinePerimeter;whiteSpace=wrap;html=1;container=1;dropTarget=0;collapsible=0;recursiveResize=0;outlineConnect=0;portConstraint=eastwest;newEdgeStyle={&quot;curved&quot;:0,&quot;rounded&quot;:0};" parent="1" vertex="1">
          <mxGeometry x="330" y="120" width="100" height="680" as="geometry" />
        </mxCell>
        <mxCell id="Erd0pCjpf10aL4VD4ASl-3" value="collectEnchantment()" style="html=1;verticalAlign=bottom;endArrow=block;curved=0;rounded=0;" parent="1" edge="1">
          <mxGeometry width="80" relative="1" as="geometry">
            <mxPoint x="182.42" y="220" as="sourcePoint" />
            <mxPoint x="377.42" y="220" as="targetPoint" />
          </mxGeometry>
        </mxCell>
        <mxCell id="Erd0pCjpf10aL4VD4ASl-5" value="confirmEnchantmentCollected()" style="html=1;verticalAlign=bottom;endArrow=open;dashed=1;endSize=8;curved=0;rounded=0;" parent="1" edge="1">
          <mxGeometry x="-0.0015" relative="1" as="geometry">
            <mxPoint x="372.42" y="270" as="sourcePoint" />
            <mxPoint x="177.575172413793" y="270" as="targetPoint" />
            <Array as="points">
              <mxPoint x="287.42" y="270" />
            </Array>
            <mxPoint as="offset" />
          </mxGeometry>
        </mxCell>
        <mxCell id="Erd0pCjpf10aL4VD4ASl-22" value="requestExitCurrentHall()" style="html=1;verticalAlign=bottom;endArrow=block;curved=0;rounded=0;" parent="1" edge="1">
          <mxGeometry width="80" relative="1" as="geometry">
            <mxPoint x="182.5" y="320" as="sourcePoint" />
            <mxPoint x="377.5" y="320" as="targetPoint" />
          </mxGeometry>
        </mxCell>
        <mxCell id="Erd0pCjpf10aL4VD4ASl-27" value="confirmEnchantmentEffect()" style="html=1;verticalAlign=bottom;endArrow=block;curved=0;rounded=0;" parent="1" edge="1">
          <mxGeometry width="80" relative="1" as="geometry">
            <mxPoint x="182.5" y="530" as="sourcePoint" />
            <mxPoint x="377.5" y="530" as="targetPoint" />
            <mxPoint as="offset" />
          </mxGeometry>
        </mxCell>
        <mxCell id="Erd0pCjpf10aL4VD4ASl-28" value="visualizeCompletionStatus()" style="html=1;verticalAlign=bottom;endArrow=open;dashed=1;endSize=8;curved=0;rounded=0;" parent="1" edge="1">
          <mxGeometry x="-0.0015" relative="1" as="geometry">
            <mxPoint x="377.42" y="570" as="sourcePoint" />
            <mxPoint x="182.575172413793" y="570" as="targetPoint" />
            <Array as="points">
              <mxPoint x="292.42" y="570" />
            </Array>
            <mxPoint as="offset" />
          </mxGeometry>
        </mxCell>
        <mxCell id="Erd0pCjpf10aL4VD4ASl-31" value="storeEnchantment()" style="html=1;verticalAlign=bottom;endArrow=block;curved=0;rounded=0;" parent="1" edge="1">
          <mxGeometry width="80" relative="1" as="geometry">
            <mxPoint x="182.5" y="620" as="sourcePoint" />
            <mxPoint x="377.5" y="620" as="targetPoint" />
          </mxGeometry>
        </mxCell>
        <mxCell id="Hrz58qe9vxwctcW8gFNo-3" value="&lt;span style=&quot;font-size: 8px;&quot;&gt;loop&lt;/span&gt;&lt;div&gt;&lt;span style=&quot;font-size: 8px;&quot;&gt;[isCompleted()]&lt;/span&gt;&lt;/div&gt;" style="shape=umlFrame;whiteSpace=wrap;html=1;pointerEvents=0;width=70;height=40;" parent="1" vertex="1">
          <mxGeometry x="90" y="400" width="380" height="100" as="geometry" />
        </mxCell>
        <mxCell id="Hrz58qe9vxwctcW8gFNo-10" value="useEnchantment(enchantment)" style="html=1;verticalAlign=bottom;endArrow=open;dashed=1;endSize=8;curved=0;rounded=0;" parent="1" edge="1">
          <mxGeometry x="0.0001" relative="1" as="geometry">
            <mxPoint x="377.42" y="470" as="sourcePoint" />
            <mxPoint x="182.575172413793" y="470" as="targetPoint" />
            <Array as="points">
              <mxPoint x="292.42" y="470" />
            </Array>
            <mxPoint as="offset" />
          </mxGeometry>
        </mxCell>
        <mxCell id="Hrz58qe9vxwctcW8gFNo-11" value="openInventory()" style="html=1;verticalAlign=bottom;endArrow=block;curved=0;rounded=0;" parent="1" edge="1">
          <mxGeometry width="80" relative="1" as="geometry">
            <mxPoint x="182.5" y="370" as="sourcePoint" />
            <mxPoint x="377.5" y="370" as="targetPoint" />
            <Array as="points">
              <mxPoint x="280" y="370" />
            </Array>
            <mxPoint as="offset" />
          </mxGeometry>
        </mxCell>
        <mxCell id="Hrz58qe9vxwctcW8gFNo-14" value="selectEnchantment()" style="html=1;verticalAlign=bottom;endArrow=block;curved=0;rounded=0;" parent="1" edge="1">
          <mxGeometry width="80" relative="1" as="geometry">
            <mxPoint x="182.5" y="430" as="sourcePoint" />
            <mxPoint x="377.5" y="430" as="targetPoint" />
            <Array as="points">
              <mxPoint x="280" y="430" />
            </Array>
            <mxPoint as="offset" />
          </mxGeometry>
        </mxCell>
      </root>
    </mxGraphModel>
  </diagram>
</mxfile>
